<svg xmlns="http://www.w3.org/2000/svg" width="166.224" height="30.881" viewBox="0 0 166.224 30.881">
  <g id="Group_1" data-name="Group 1" transform="translate(-1590.776 1760.313)">
    <path id="Path_4" data-name="Path 4" d="M466,218.284V203h9.306v10.605H497.14v19.963h-9.254l-.01-5.495-.016-5.5-6.275-.016-6.28-.01-.01,5.495-.016,5.5-4.637.016-4.642.01Z" transform="translate(1124.776 -1963)" fill="#0093dd"/>
    <path id="Path_5" data-name="Path 5" d="M887,207.575V203h9.254v.328a8.813,8.813,0,0,1-.769,3.364,9.046,9.046,0,0,1-6.415,5.245,12.011,12.011,0,0,1-1.872.213H887Z" transform="translate(725.663 -1963.313)" fill="#09516f"/>
    <text id="HYATT_House" data-name="HYATT House" transform="translate(1633 -1737)" fill="#fff" font-size="20" font-family="Roboto-Bold, Roboto" font-weight="700"><tspan x="0" y="0">HYATT</tspan><tspan y="0" fill="#0e0d0d" font-family="Roboto-Regular, Roboto" font-weight="400"> </tspan><tspan y="0" font-family="Roboto-Light, Roboto" font-weight="300">House</tspan></text>
  </g>
</svg>
